<?xml version="1.0" encoding="UTF-8" standalone="no"?>
<svg
   xmlns:dc="http://purl.org/dc/elements/1.1/"
   xmlns:cc="http://creativecommons.org/ns#"
   xmlns:rdf="http://www.w3.org/1999/02/22-rdf-syntax-ns#"
   xmlns:svg="http://www.w3.org/2000/svg"
   xmlns="http://www.w3.org/2000/svg"
   xmlns:xlink="http://www.w3.org/1999/xlink"
   id="svg8"
   version="1.1"
   viewBox="0 0 93.509804 26.63331"
   height="26.63331mm"
   width="93.509804mm">
  <defs
     id="defs2">
    <linearGradient
       id="linearGradient4551">
      <stop
         id="stop4585"
         offset="0"
         style="stop-color:#808080;stop-opacity:1" />
      <stop
         style="stop-color:#d6d6d6;stop-opacity:1"
         offset="0.16812658"
         id="stop4592" />
      <stop
         id="stop4594"
         offset="0.81837118"
         style="stop-color:#e3e3e3;stop-opacity:1;" />
      <stop
         id="stop4587"
         offset="1"
         style="stop-color:#ffffff;stop-opacity:1" />
    </linearGradient>
    <linearGradient
       id="linearGradient4551-0">
      <stop
         style="stop-color:#ff0000;stop-opacity:1;"
         offset="0"
         id="stop4547" />
      <stop
         style="stop-color:#ffffff;stop-opacity:1"
         offset="1"
         id="stop4549" />
    </linearGradient>
    <linearGradient
       id="linearGradient4520">
      <stop
         id="stop4516"
         offset="0"
         style="stop-color:#ff0000;stop-opacity:1;" />
      <stop
         id="stop4518"
         offset="1"
         style="stop-color:#ff0000;stop-opacity:0;" />
    </linearGradient>
    <linearGradient
       gradientUnits="userSpaceOnUse"
       y2="218.44128"
       x2="51.021351"
       y1="271.36066"
       x1="60.585934"
       id="linearGradient4522"
       xlink:href="#linearGradient4520" />
    <linearGradient
       gradientUnits="userSpaceOnUse"
       y2="271.34213"
       x2="111.4514"
       y1="314.37253"
       x1="124.28033"
       id="linearGradient4539"
       xlink:href="#linearGradient4551-0" />
    <linearGradient
       y2="268.31833"
       x2="110.31747"
       y1="284.32343"
       x1="191.37111"
       gradientUnits="userSpaceOnUse"
       id="linearGradient4590"
       xlink:href="#linearGradient4551" />
    <linearGradient
       y2="268.31833"
       x2="110.31747"
       y1="284.32343"
       x1="191.37111"
       gradientUnits="userSpaceOnUse"
       id="linearGradient4647"
       xlink:href="#linearGradient4551" />
    <linearGradient
       gradientTransform="translate(-3.3e-6,5e-6)"
       y2="271.34213"
       x2="111.4514"
       y1="314.37253"
       x1="124.28033"
       gradientUnits="userSpaceOnUse"
       id="linearGradient4649"
       xlink:href="#linearGradient4551-0" />
  </defs>
  <metadata
     id="metadata5">
    <rdf:RDF>
      <cc:Work
         rdf:about="">
        <dc:format>image/svg+xml</dc:format>
        <dc:type
           rdf:resource="http://purl.org/dc/dcmitype/StillImage" />
        <dc:title></dc:title>
      </cc:Work>
    </rdf:RDF>
  </metadata>
  <g
     transform="translate(-101.57969,-270.06602)"
     id="layer1">
    <g
       id="g4641">
      <path
         id="path4565"
         d="m 107.12136,274.54935 h 6.30882 l 7.39461,-4.23333 h 55.0196 l 7.39461,4.23333 h 6.30882 l 5.29167,12.58317 h -93.0098 z"
         style="color:#000000;clip-rule:nonzero;display:inline;overflow:visible;visibility:visible;opacity:1;isolation:auto;mix-blend-mode:normal;color-interpolation:sRGB;color-interpolation-filters:linearRGB;solid-color:#000000;solid-opacity:1;vector-effect:none;fill:url(#linearGradient4647);fill-opacity:1;fill-rule:nonzero;stroke:#000000;stroke-width:0.5;stroke-linecap:butt;stroke-linejoin:bevel;stroke-miterlimit:4;stroke-dasharray:none;stroke-dashoffset:0;stroke-opacity:1;marker:none;paint-order:normal;color-rendering:auto;image-rendering:auto;shape-rendering:auto;text-rendering:auto;enable-background:accumulate" />
      <path
         style="color:#000000;clip-rule:nonzero;display:inline;overflow:visible;visibility:visible;opacity:1;isolation:auto;mix-blend-mode:normal;color-interpolation:sRGB;color-interpolation-filters:linearRGB;solid-color:#000000;solid-opacity:1;vector-effect:none;fill:url(#linearGradient4649);fill-opacity:1;fill-rule:nonzero;stroke:#000000;stroke-width:0.5;stroke-linecap:butt;stroke-linejoin:bevel;stroke-miterlimit:4;stroke-dasharray:none;stroke-dashoffset:0;stroke-opacity:1;marker:none;paint-order:normal;color-rendering:auto;image-rendering:auto;shape-rendering:auto;text-rendering:auto;enable-background:accumulate"
         d="m 194.83949,287.13252 v 9.31681 h -93.0098 v -9.31681 z"
         id="rect4530" />
      <path
         style="color:#000000;clip-rule:nonzero;display:inline;overflow:visible;visibility:visible;opacity:1;isolation:auto;mix-blend-mode:normal;color-interpolation:sRGB;color-interpolation-filters:linearRGB;solid-color:#000000;solid-opacity:1;vector-effect:none;fill:#ffffff;fill-opacity:0.5254902;fill-rule:nonzero;stroke:#000000;stroke-width:0.5;stroke-linecap:butt;stroke-linejoin:bevel;stroke-miterlimit:4;stroke-dasharray:none;stroke-dashoffset:0;stroke-opacity:1;marker:none;paint-order:normal;color-rendering:auto;image-rendering:auto;shape-rendering:auto;text-rendering:auto;enable-background:accumulate"
         d="m 111.929,284.8974 6.24994,-10.34802"
         id="path4555" />
      <path
         id="path4557"
         d="m 184.74018,284.8974 -6.24994,-10.34802"
         style="color:#000000;clip-rule:nonzero;display:inline;overflow:visible;visibility:visible;opacity:1;isolation:auto;mix-blend-mode:normal;color-interpolation:sRGB;color-interpolation-filters:linearRGB;solid-color:#000000;solid-opacity:1;vector-effect:none;fill:#ffffff;fill-opacity:0.5254902;fill-rule:nonzero;stroke:#000000;stroke-width:0.5;stroke-linecap:butt;stroke-linejoin:bevel;stroke-miterlimit:4;stroke-dasharray:none;stroke-dashoffset:0;stroke-opacity:1;marker:none;paint-order:normal;color-rendering:auto;image-rendering:auto;shape-rendering:auto;text-rendering:auto;enable-background:accumulate" />
      <g
         id="text4563"
         style="color:#000000;font-style:normal;font-variant:normal;font-weight:bold;font-stretch:normal;font-size:9.53597641px;line-height:125%;font-family:Arial;-inkscape-font-specification:'Arial Bold';font-variant-ligatures:normal;font-variant-position:normal;font-variant-caps:normal;font-variant-numeric:normal;font-variant-alternates:normal;font-feature-settings:normal;text-indent:0;text-align:start;text-decoration:none;text-decoration-line:none;text-decoration-style:solid;text-decoration-color:#000000;letter-spacing:normal;word-spacing:normal;text-transform:none;writing-mode:lr-tb;direction:ltr;text-orientation:mixed;dominant-baseline:auto;baseline-shift:baseline;text-anchor:start;white-space:normal;shape-padding:0;clip-rule:nonzero;display:inline;overflow:visible;visibility:visible;opacity:1;isolation:auto;mix-blend-mode:normal;color-interpolation:sRGB;color-interpolation-filters:linearRGB;solid-color:#000000;solid-opacity:1;vector-effect:none;fill:#000000;fill-opacity:0.5254902;fill-rule:nonzero;stroke:#000000;stroke-width:0.75086433;stroke-linecap:butt;stroke-linejoin:bevel;stroke-miterlimit:4;stroke-dasharray:none;stroke-dashoffset:0;stroke-opacity:1;marker:none;paint-order:normal;color-rendering:auto;image-rendering:auto;shape-rendering:auto;text-rendering:auto;enable-background:accumulate"
         aria-label="HarmonHero">
        <path
           id="path4651"
           style="font-style:normal;font-variant:normal;font-weight:bold;font-stretch:normal;font-family:'Copperplate Gothic Bold';-inkscape-font-specification:'Copperplate Gothic Bold, Bold';text-align:center;letter-spacing:1.32291663px;text-anchor:middle;fill:#000000;fill-opacity:1;stroke:none;stroke-width:0.75086433"
           d="m 112.87722,292.17651 h -3.66446 v 2.29087 q 0,0.13969 0.0652,0.21884 0.0698,0.0745 0.23281,0.11641 v 0.149 h -1.98356 v -0.149 q 0.16762,-0.0466 0.23281,-0.12106 0.0652,-0.0745 0.0652,-0.21419 v -5.38727 q 0,-0.13968 -0.0652,-0.21418 -0.0652,-0.0745 -0.23281,-0.12107 v -0.149 h 1.98356 v 0.149 q -0.16763,0.0419 -0.23281,0.12107 -0.0652,0.0745 -0.0652,0.21418 v 2.04875 h 3.66446 v -2.04875 q 0,-0.13968 -0.0652,-0.21418 -0.0652,-0.0792 -0.23281,-0.12107 v -0.149 h 1.98356 v 0.149 q -0.16763,0.0466 -0.23282,0.12107 -0.0652,0.0745 -0.0652,0.21418 v 5.38727 q 0,0.13969 0.0652,0.21419 0.0652,0.0745 0.23282,0.12106 v 0.149 h -1.98356 v -0.149 q 0.16297,-0.0419 0.22815,-0.11641 0.0698,-0.0791 0.0698,-0.21884 z" />
        <path
           id="path4653"
           style="font-style:normal;font-variant:normal;font-weight:bold;font-stretch:normal;font-family:'Copperplate Gothic Bold';-inkscape-font-specification:'Copperplate Gothic Bold, Bold';text-align:center;letter-spacing:1.32291663px;text-anchor:middle;fill:#000000;fill-opacity:1;stroke:none;stroke-width:0.75086433"
           d="m 120.86321,293.64788 h -2.39796 l -0.27006,0.56806 q -0.0978,0.20488 -0.0978,0.32128 0,0.2235 0.298,0.28403 v 0.13038 h -1.91837 v -0.13038 q 0.17693,-0.0279 0.26074,-0.10709 0.0885,-0.0791 0.20488,-0.31197 l 1.9044,-3.85536 q 0.10709,-0.21885 0.10709,-0.38181 0,-0.19091 -0.26075,-0.298 v -0.13038 h 2.02547 v 0.13038 q -0.25609,0.10243 -0.25609,0.31662 0,0.15366 0.1164,0.37716 l 1.97425,3.73896 q 0.16296,0.30731 0.25609,0.40043 0.0931,0.0885 0.28403,0.12572 v 0.12572 h -2.1279 v -0.12572 q 0.30265,-0.0512 0.30265,-0.28403 0,-0.14434 -0.1164,-0.35853 z m -0.37715,-0.73103 -0.8521,-1.67159 -0.81018,1.67159 z" />
        <path
           id="path4655"
           style="font-style:normal;font-variant:normal;font-weight:bold;font-stretch:normal;font-family:'Copperplate Gothic Bold';-inkscape-font-specification:'Copperplate Gothic Bold, Bold';text-align:center;letter-spacing:1.32291663px;text-anchor:middle;fill:#000000;fill-opacity:1;stroke:none;stroke-width:0.75086433"
           d="m 126.39071,292.80976 v 1.66693 q 0,0.14435 0.0652,0.2235 0.0652,0.0745 0.23281,0.12572 v 0.12572 h -1.84387 v -0.13038 q 0.16297,-0.0419 0.22816,-0.12106 0.0698,-0.0792 0.0698,-0.2235 v -4.26511 q 0,-0.14434 -0.0652,-0.21884 -0.0652,-0.0745 -0.23281,-0.12572 v -0.13038 h 3.41768 q 0.66584,0 1.01506,0.0698 0.34922,0.0652 0.62393,0.24212 0.56341,0.36784 0.56341,1.20131 0,0.63325 -0.34922,0.99178 -0.34456,0.35387 -1.1175,0.51219 l 0.98713,1.37824 q 0.27006,0.38181 0.42837,0.5215 0.16297,0.13503 0.36784,0.17228 v 0.12572 h -2.18843 v -0.12572 q 0.24213,-0.0652 0.24213,-0.20953 0,-0.10244 -0.149,-0.31197 l -1.043,-1.49465 z m 0,-0.94522 h 1.88112 q 0.42838,0 0.63325,-0.0931 0.28869,-0.12572 0.28869,-0.49822 0,-0.33059 -0.20488,-0.46097 -0.20022,-0.13037 -0.71706,-0.13037 h -1.88112 z" />
        <path
           id="path4657"
           style="font-style:normal;font-variant:normal;font-weight:bold;font-stretch:normal;font-family:'Copperplate Gothic Bold';-inkscape-font-specification:'Copperplate Gothic Bold, Bold';text-align:center;letter-spacing:1.32291663px;text-anchor:middle;fill:#000000;fill-opacity:1;stroke:none;stroke-width:0.75086433"
           d="m 136.08555,294.78866 -1.89975,-3.26402 v 2.95205 q 0,0.14435 0.0652,0.2235 0.0652,0.0745 0.23281,0.12572 v 0.12572 h -1.73212 v -0.13038 q 0.16297,-0.0419 0.22815,-0.12106 0.0699,-0.0792 0.0699,-0.2235 v -4.26511 q 0,-0.14434 -0.0652,-0.21884 -0.0652,-0.0792 -0.23281,-0.12572 v -0.13038 h 2.2024 v 0.13038 q -0.21884,0.0698 -0.21884,0.2654 0,0.19091 0.15831,0.46563 l 1.29909,2.19308 1.3084,-2.16049 q 0.2235,-0.36784 0.2235,-0.5215 0,-0.1909 -0.22815,-0.24212 v -0.13038 h 2.14652 v 0.13038 q -0.16762,0.0466 -0.23281,0.12572 -0.0652,0.0745 -0.0652,0.21884 v 4.26511 q 0,0.14435 0.0652,0.2235 0.0652,0.0792 0.23281,0.12572 v 0.12572 h -1.84387 v -0.13038 q 0.16297,-0.0419 0.22816,-0.12106 0.0698,-0.0792 0.0698,-0.2235 v -2.95205 z" />
        <path
           id="path4659"
           style="font-style:normal;font-variant:normal;font-weight:bold;font-stretch:normal;font-family:'Copperplate Gothic Bold';-inkscape-font-specification:'Copperplate Gothic Bold, Bold';text-align:center;letter-spacing:1.32291663px;text-anchor:middle;fill:#000000;fill-opacity:1;stroke:none;stroke-width:0.75086433"
           d="m 144.82119,289.62489 q 1.24322,0 2.07203,0.63325 0.99178,0.76362 0.99178,2.1279 0,1.28047 -0.99178,2.04409 -0.8195,0.63325 -2.06271,0.63325 -1.24322,0 -2.06272,-0.63325 -0.99643,-0.76362 -0.99643,-2.08599 0,-1.33634 0.99643,-2.086 0.82416,-0.61928 2.0534,-0.63325 z m 0.005,0.98713 q -0.80553,0 -1.31306,0.51684 -0.47028,0.48425 -0.47028,1.21528 0,0.72637 0.47028,1.21062 0.50753,0.5215 1.31772,0.5215 0.80553,0 1.31306,-0.5215 0.47028,-0.47959 0.47028,-1.18734 0,-0.76828 -0.47028,-1.23856 -0.51219,-0.50753 -1.31772,-0.51684 z" />
        <path
           id="path4661"
           style="font-style:normal;font-variant:normal;font-weight:bold;font-stretch:normal;font-family:'Copperplate Gothic Bold';-inkscape-font-specification:'Copperplate Gothic Bold, Bold';text-align:center;letter-spacing:1.32291663px;text-anchor:middle;fill:#000000;fill-opacity:1;stroke:none;stroke-width:0.75086433"
           d="m 151.44291,291.51533 v 2.96136 q 0,0.14435 0.0652,0.2235 0.0698,0.0792 0.23281,0.12572 v 0.12572 h -1.73212 v -0.13038 q 0.16297,-0.0419 0.22816,-0.12106 0.0698,-0.0792 0.0698,-0.2235 v -4.26511 q 0,-0.14434 -0.0652,-0.21884 -0.0652,-0.0745 -0.23281,-0.12572 v -0.13038 h 2.00218 v 0.13038 q -0.20487,0.0512 -0.20487,0.18159 0,0.11175 0.149,0.26075 l 2.79374,2.77512 v -2.8729 q 0,-0.14434 -0.0652,-0.21884 -0.0652,-0.0792 -0.23281,-0.12572 v -0.13038 h 1.73212 v 0.13038 q -0.16762,0.0466 -0.23281,0.12572 -0.0652,0.0745 -0.0652,0.21884 v 4.26511 q 0,0.14435 0.0652,0.2235 0.0652,0.0745 0.23281,0.12572 v 0.12572 h -1.86715 v -0.12572 q 0.20487,-0.0419 0.20487,-0.17228 0,-0.0652 -0.0559,-0.13503 -0.0559,-0.0698 -0.25609,-0.27472 z" />
        <path
           id="path4663"
           style="font-style:normal;font-variant:normal;font-weight:bold;font-stretch:normal;font-family:'Copperplate Gothic Bold';-inkscape-font-specification:'Copperplate Gothic Bold, Bold';text-align:center;letter-spacing:1.32291663px;text-anchor:middle;fill:#000000;fill-opacity:1;stroke:none;stroke-width:0.75086433"
           d="m 163.89424,292.17651 h -3.66446 v 2.29087 q 0,0.13969 0.0652,0.21884 0.0699,0.0745 0.23281,0.11641 v 0.149 h -1.98355 v -0.149 q 0.16762,-0.0466 0.23281,-0.12106 0.0652,-0.0745 0.0652,-0.21419 v -5.38727 q 0,-0.13968 -0.0652,-0.21418 -0.0652,-0.0745 -0.23281,-0.12107 v -0.149 h 1.98355 v 0.149 q -0.16762,0.0419 -0.23281,0.12107 -0.0652,0.0745 -0.0652,0.21418 v 2.04875 h 3.66446 v -2.04875 q 0,-0.13968 -0.0652,-0.21418 -0.0652,-0.0792 -0.23281,-0.12107 v -0.149 h 1.98355 v 0.149 q -0.16762,0.0466 -0.23281,0.12107 -0.0652,0.0745 -0.0652,0.21418 v 5.38727 q 0,0.13969 0.0652,0.21419 0.0652,0.0745 0.23281,0.12106 v 0.149 h -1.98355 v -0.149 q 0.16296,-0.0419 0.22815,-0.11641 0.0699,-0.0791 0.0699,-0.21884 z" />
        <path
           id="path4665"
           style="font-style:normal;font-variant:normal;font-weight:bold;font-stretch:normal;font-family:'Copperplate Gothic Bold';-inkscape-font-specification:'Copperplate Gothic Bold, Bold';text-align:center;letter-spacing:1.32291663px;text-anchor:middle;fill:#000000;fill-opacity:1;stroke:none;stroke-width:0.75086433"
           d="m 169.47295,292.73526 v 1.27115 h 3.31059 q 0.14434,0 0.21884,-0.0652 0.0792,-0.0652 0.12572,-0.23747 h 0.13038 v 1.54587 h -0.13038 q -0.0419,-0.16297 -0.12106,-0.23281 -0.0792,-0.0652 -0.2235,-0.0652 h -4.85646 v -0.13038 q 0.16297,-0.0419 0.22816,-0.12106 0.0698,-0.0792 0.0698,-0.2235 v -4.26511 q 0,-0.14434 -0.0652,-0.21884 -0.0652,-0.0745 -0.23281,-0.12572 v -0.13038 h 4.71212 q 0.149,0 0.2235,-0.0652 0.0791,-0.0652 0.12571,-0.23282 h 0.12572 v 1.54587 h -0.12572 q -0.0466,-0.17228 -0.12571,-0.23746 -0.0745,-0.0652 -0.2235,-0.0652 h -3.16625 v 1.14543 h 1.96494 q 0.14434,0 0.21884,-0.0652 0.0792,-0.0652 0.13037,-0.23282 h 0.12572 v 1.50863 h -0.12572 q -0.0466,-0.16763 -0.12571,-0.23282 -0.0745,-0.0698 -0.2235,-0.0698 z" />
        <path
           id="path4667"
           style="font-style:normal;font-variant:normal;font-weight:bold;font-stretch:normal;font-family:'Copperplate Gothic Bold';-inkscape-font-specification:'Copperplate Gothic Bold, Bold';text-align:center;letter-spacing:1.32291663px;text-anchor:middle;fill:#000000;fill-opacity:1;stroke:none;stroke-width:0.75086433"
           d="m 176.92348,292.80976 v 1.66693 q 0,0.14435 0.0652,0.2235 0.0652,0.0745 0.23282,0.12572 v 0.12572 h -1.84387 v -0.13038 q 0.16296,-0.0419 0.22815,-0.12106 0.0699,-0.0792 0.0699,-0.2235 v -4.26511 q 0,-0.14434 -0.0652,-0.21884 -0.0652,-0.0745 -0.23281,-0.12572 v -0.13038 h 3.41768 q 0.66584,0 1.01506,0.0698 0.34921,0.0652 0.62393,0.24212 0.56341,0.36784 0.56341,1.20131 0,0.63325 -0.34922,0.99178 -0.34456,0.35387 -1.1175,0.51219 l 0.98712,1.37824 q 0.27007,0.38181 0.42838,0.5215 0.16297,0.13503 0.36784,0.17228 v 0.12572 h -2.18843 v -0.12572 q 0.24212,-0.0652 0.24212,-0.20953 0,-0.10244 -0.149,-0.31197 l -1.04299,-1.49465 z m 0,-0.94522 h 1.88112 q 0.42837,0 0.63325,-0.0931 0.28868,-0.12572 0.28868,-0.49822 0,-0.33059 -0.20487,-0.46097 -0.20022,-0.13037 -0.71706,-0.13037 h -1.88112 z" />
        <path
           id="path4669"
           style="font-style:normal;font-variant:normal;font-weight:bold;font-stretch:normal;font-family:'Copperplate Gothic Bold';-inkscape-font-specification:'Copperplate Gothic Bold, Bold';text-align:center;letter-spacing:1.32291663px;text-anchor:middle;fill:#000000;fill-opacity:1;stroke:none;stroke-width:0.75086433"
           d="m 186.07819,289.62489 q 1.24321,0 2.07202,0.63325 0.99178,0.76362 0.99178,2.1279 0,1.28047 -0.99178,2.04409 -0.81949,0.63325 -2.06271,0.63325 -1.24322,0 -2.06271,-0.63325 -0.99644,-0.76362 -0.99644,-2.08599 0,-1.33634 0.99644,-2.086 0.82415,-0.61928 2.0534,-0.63325 z m 0.005,0.98713 q -0.80553,0 -1.31306,0.51684 -0.47028,0.48425 -0.47028,1.21528 0,0.72637 0.47028,1.21062 0.50753,0.5215 1.31772,0.5215 0.80553,0 1.31306,-0.5215 0.47028,-0.47959 0.47028,-1.18734 0,-0.76828 -0.47028,-1.23856 -0.51219,-0.50753 -1.31772,-0.51684 z" />
      </g>
      <g
         id="g4615"
         transform="translate(0.959355,0.03415626)">
        <path
           id="path4596"
           d="m 124.39872,280.01313 c 1.41155,0.22493 2.98731,-0.47313 3.03192,-1.96791 0.0326,-1.09169 0.6248,-2.64181 -0.51074,-3.27739 -1.193,-0.66774 -2.21534,1.028 -2.23287,2.14455 -0.0188,1.19726 0.91695,2.45343 0.18808,3.57674 -0.59482,0.91672 -0.38586,2.25616 -3.37266,0.14823 -0.79491,-0.56099 -1.77154,1.22604 -1.98781,0.21301 -0.33381,-1.56368 1.83162,-2.53706 2.32617,-1.79455 2.45143,3.68055 2.23882,2.57805 3.38551,3.32402 1.10227,0.71707 2.06143,-2.54279 0.77396,-1.90124 -1.09308,0.54468 0.15997,1.7551 1.49448,1.81684 7.41912,0.34323 8.6913,-10.24538 3.63554,-6.88683 -0.92551,0.61482 0.756,1.77938 1.43776,2.21866 0.90327,0.58201 1.84543,1.43158 1.72279,2.6281 -0.14701,1.43424 -2.1879,1.56465 -3.24907,1.9151 -1.43632,0.47434 0.44218,3.99067 1.74006,3.28893 1.23032,-0.66521 0.96305,-3.67204 0.79849,-4.85379 -0.19502,-1.40052 -2.20213,-2.51287 -3.55454,-2.01831 -1.03232,0.37751 -3.12669,0.0244 -3.14021,1.36827 -0.0148,1.46723 1.51694,0.55224 2.12889,-0.11783 0.58894,-0.64488 3.03859,-0.72886 3.13461,-0.27232 0.23397,1.11241 -1.85529,2.20447 -1.3234,3.23496 0.65524,1.26948 1.02709,0.52555 1.5724,-0.42049 0.66078,-1.14638 2.70094,-2.45799 2.7123,-3.75395 0.01,-1.09956 -1.5446,-3.51456 -0.36761,-2.99689 1.89995,0.83567 3.18518,1.13079 4.78077,0.51553 1.33683,-0.51548 -1.58959,2.18456 -2.71065,2.83579 -1.20775,0.70158 1.22972,3.08068 2.54175,2.37478 1.00504,-0.54074 0.73934,-2.0525 0.15686,-2.88391 -0.63813,-0.91086 -3.11258,-1.62071 -4.01559,-0.72381 -1.1729,1.16497 0.62455,2.54975 0.33613,3.77852 -0.28066,1.19568 -0.46944,0.2272 -1.34373,-0.0176 -1.03237,-0.28906 -1.80619,-1.53827 -1.14688,-2.56616 1.00092,-1.56048 1.71127,-1.41955 2.54723,-3.14709 0.42101,-0.87002 0.0168,-1.90881 -0.87416,-2.25223 -1.38317,-0.53318 -2.99936,0.51573 -3.15314,1.98048 -0.61865,5.89276 -6.75492,5.12642 1.42886,6.59449 1.81035,0.32476 4.65711,-0.10691 6.46894,-0.0962 0.75481,0.004 1.7987,-0.92221 2.81817,-0.89074 1.03617,0.032 2.04789,1.02097 2.80283,0.88274 0.71391,-0.13072 3.13455,0.28269 3.2494,-0.58803 0.0276,-0.2096 -1.95414,0.40192 -2.00827,-1.2865 -0.045,-1.4032 2.93627,-3.96925 -0.13988,-3.99092 -3.73114,-0.0263 3.9018,7.97291 -2.08534,3.84188 -2.62285,-1.80973 1.01728,-2.44122 1.23386,-1.78229 0.11294,0.34362 -0.0273,0.55403 -0.31216,0.48649 -1.70487,-0.40417 -2.18533,2.08645 -0.90556,2.42894 4.00414,1.07159 2.25827,-1.45793 -0.29684,-2.68694 -1.36406,-0.65612 -3.49557,-1.29705 -4.3393,-0.81953 -1.47774,0.83635 1.4373,2.38518 2.47259,2.90618 0.90592,0.45589 1.94157,0.0219 1.12491,-0.98437 -0.71559,-0.88171 -1.19862,-2.63954 -0.1303,-3.33519 1.00898,-0.65702 0.50871,1.13968 0.18761,1.70982 -0.49149,0.87269 -1.63201,2.94953 -2.31539,1.67624 -6.01566,-11.20859 0.99946,-8.19472 -2.52741,-3.98136 -0.33128,0.39577 -2.0152,0.0532 -2.2983,-3.50261 -1.64758,2.82188 -2.39459,2.5581 -1.8403,-0.2274 -0.66546,1.63397 -1.13699,1.25492 -1.61498,2.51065 -0.75282,-5.77068 -2.60956,-2.25489 -1.20653,0.29165 -3.08801,-3.11257 -2.93414,-1.85693 -1.80633,1.6869 -1.2987,-2.45067 -1.97331,-3.09283 -1.68959,-0.10122 0.14452,1.52386 2.41231,2.61935 3.82806,2.68555 1.35653,0.0634 1.63374,0.60398 2.81482,1.25897 1.1039,0.61219 -1.07214,2.13367 -2.05541,2.58616 -0.96815,0.44553 -0.90358,0.83123 -1.87923,1.25874 -0.44297,0.1941 -0.86635,0.37236 -1.28554,0.50973 -0.49137,0.16104 -1.20692,-1.27933 -1.67687,-1.1941 -0.59024,0.10703 -0.92946,1.72027 -1.49543,1.73857 -0.82124,0.0266 -1.33904,-1.48685 -2.13656,-1.55845 -0.63316,-0.0568 -0.48981,1.34375 -1.12563,1.27722 -1.41986,-0.14858 0.006,-1.44037 -0.77736,-2.17181 -0.81781,-0.76392 -0.87903,1.92781 -2.19501,0.89262 -2.51835,-1.98102 -4.49532,-6.92498 3.26296,-10.47707 -2.51553,4.03148 0.98787,4.91991 0.98787,6.94072 z"
           style="color:#000000;clip-rule:nonzero;display:inline;overflow:visible;visibility:visible;opacity:1;isolation:auto;mix-blend-mode:normal;color-interpolation:sRGB;color-interpolation-filters:linearRGB;solid-color:#000000;solid-opacity:1;vector-effect:none;fill:none;fill-opacity:1;fill-rule:nonzero;stroke:#000000;stroke-width:0.08;stroke-linecap:butt;stroke-linejoin:bevel;stroke-miterlimit:4;stroke-dasharray:none;stroke-dashoffset:0;stroke-opacity:1;marker:none;paint-order:normal;color-rendering:auto;image-rendering:auto;shape-rendering:auto;text-rendering:auto;enable-background:accumulate" />
        <use
           x="0"
           y="0"
           xlink:href="#path4596"
           id="use4621"
           transform="matrix(-1,0,0,1,294.75047,0)"
           width="100%"
           height="100%" />
      </g>
      <g
         id="text4619"
         style="color:#000000;font-style:normal;font-variant:normal;font-weight:bold;font-stretch:normal;font-size:4.667799px;line-height:125%;font-family:'Copperplate Gothic Bold';-inkscape-font-specification:'Copperplate Gothic Bold,  Bold';font-variant-ligatures:normal;font-variant-position:normal;font-variant-caps:normal;font-variant-numeric:normal;font-variant-alternates:normal;font-feature-settings:normal;text-indent:0;text-align:center;text-decoration:none;text-decoration-line:none;text-decoration-style:solid;text-decoration-color:#000000;letter-spacing:normal;word-spacing:normal;text-transform:none;writing-mode:lr-tb;direction:ltr;text-orientation:mixed;dominant-baseline:auto;baseline-shift:baseline;text-anchor:middle;white-space:normal;shape-padding:0;clip-rule:nonzero;display:inline;overflow:visible;visibility:visible;opacity:1;isolation:auto;mix-blend-mode:normal;color-interpolation:sRGB;color-interpolation-filters:linearRGB;solid-color:#000000;solid-opacity:1;vector-effect:none;fill:none;fill-opacity:1;fill-rule:nonzero;stroke:#000000;stroke-width:0.08;stroke-linecap:butt;stroke-linejoin:bevel;stroke-miterlimit:4;stroke-dasharray:none;stroke-dashoffset:0;stroke-opacity:1;marker:none;paint-order:normal;color-rendering:auto;image-rendering:auto;shape-rendering:auto;text-rendering:auto;enable-background:accumulate"
         transform="scale(1.0055453,0.99448528)"
         aria-label="2018">
        <path
           id="path4672"
           style="stroke-width:0.08"
           d="m 142.24251,275.90569 h 1.90313 q 0.0707,0 0.10712,-0.0319 0.0365,-0.0319 0.0593,-0.11396 h 0.0729 v 0.85242 h -0.0729 q -0.0228,-0.082 -0.0593,-0.11396 -0.0365,-0.0319 -0.10712,-0.0319 h -2.42279 q -0.11624,0 -0.15727,0.0274 -0.041,0.0274 -0.0615,0.11852 h -0.0729 q -0.002,-0.11396 -0.002,-0.14587 0,-0.29174 0.0661,-0.48091 0.13447,-0.38291 0.50142,-0.64957 0.18918,-0.13675 0.61767,-0.33277 l 0.38518,-0.17549 q 0.27123,-0.12536 0.38974,-0.25755 0.1208,-0.13448 0.1208,-0.31681 0,-0.20741 -0.14359,-0.31453 -0.14131,-0.1094 -0.41253,-0.1094 -0.33049,0 -0.61539,0.16182 -0.27578,0.15499 -0.27578,0.31909 0,0.0387 0.0365,0.14359 l -0.0502,0.0524 -0.60626,-0.65413 0.0547,-0.0501 q 0.0866,0.041 0.12763,0.041 0.0365,0 0.0638,-0.0159 0.0274,-0.016 0.11168,-0.0912 0.50143,-0.43533 1.23761,-0.43533 0.52877,0 0.84558,0.25983 0.32137,0.26439 0.32137,0.70427 0,0.43305 -0.30769,0.71567 -0.20285,0.18462 -0.54473,0.33732 l -0.351,0.15727 q -0.0547,0.0274 -0.24843,0.10484 -0.23704,0.0957 -0.33277,0.15727 -0.0957,0.0593 -0.17777,0.16866 z" />
        <path
           id="path4674"
           style="stroke-width:0.08"
           d="m 146.2311,273.30056 q 0.61311,0 1.01881,0.39886 0.45584,0.449 0.45584,1.23305 0,0.24615 -0.0684,0.49914 -0.0684,0.25299 -0.18689,0.43989 -0.20741,0.3282 -0.54701,0.49914 -0.30086,0.15043 -0.67009,0.15043 -0.6131,0 -1.01652,-0.40114 -0.19373,-0.19373 -0.30085,-0.4376 -0.15499,-0.36012 -0.15499,-0.77265 0,-0.55613 0.25527,-0.96182 0.20057,-0.32137 0.54701,-0.49687 0.28718,-0.14587 0.6678,-0.15043 z m 0,0.52878 q -0.36239,0 -0.57663,0.32136 -0.19829,0.29858 -0.19829,0.74074 0,0.44217 0.19829,0.74074 0.21424,0.32137 0.57891,0.32137 0.36695,0 0.57892,-0.32137 0.19829,-0.29857 0.19829,-0.72706 0,-0.46268 -0.19829,-0.75442 -0.21197,-0.3168 -0.5812,-0.32136 z" />
        <path
           id="path4676"
           style="stroke-width:0.08"
           d="m 148.49663,274.47891 v -0.82735 h 0.0729 q 0.0251,0.0843 0.0479,0.1094 0.0228,0.0251 0.0707,0.0251 0.0228,0 0.0638,-0.009 l 0.19601,-0.0502 v -0.13447 q 0,-0.0684 -0.0319,-0.10484 -0.0319,-0.0365 -0.11396,-0.0593 v -0.0729 h 0.95043 v 0.0729 q -0.082,0.0228 -0.11396,0.0593 -0.0319,0.0342 -0.0319,0.10484 v 2.63475 q 0,0.0707 0.0319,0.10713 0.0319,0.0365 0.11396,0.0593 v 0.0729 h -0.95043 v -0.0729 q 0.082,-0.0228 0.11396,-0.0593 0.0319,-0.0365 0.0319,-0.10713 v -1.96922 l -0.21425,0.0524 q -0.0752,0.0182 -0.1094,0.0524 -0.0319,0.0342 -0.0547,0.11624 z" />
        <path
           id="path4678"
           style="stroke-width:0.08"
           d="m 152.90916,274.80255 q 0.69515,0.18006 0.69515,0.73163 0,0.37151 -0.29401,0.64729 -0.36012,0.3396 -1.19886,0.3396 -0.57208,0 -0.94359,-0.16638 -0.23704,-0.10712 -0.3943,-0.33048 -0.15727,-0.22792 -0.15727,-0.48775 0,-0.55385 0.69516,-0.73391 -0.56068,-0.22108 -0.56068,-0.66552 0,-0.31453 0.25527,-0.53561 0.34643,-0.30086 1.10313,-0.30086 0.52877,0 0.88433,0.15955 0.2074,0.0934 0.34188,0.26894 0.13447,0.1755 0.13447,0.40798 0,0.44444 -0.56068,0.66552 z m -0.80456,-1.01424 q -0.32137,0 -0.51054,0.10257 -0.1869,0.10028 -0.1869,0.2735 0,0.17322 0.18918,0.2735 0.18917,0.10029 0.51282,0.10029 0.32364,0 0.51282,-0.10029 0.19145,-0.10028 0.19145,-0.26894 0,-0.18006 -0.18689,-0.28034 -0.18462,-0.10029 -0.52194,-0.10029 z m 0,1.26951 q -0.38974,0 -0.61994,0.15043 -0.17094,0.11396 -0.17094,0.31681 0,0.21652 0.21196,0.34188 0.21425,0.12308 0.58348,0.12308 0.40114,0 0.62678,-0.15043 0.17094,-0.11624 0.17094,-0.30997 0,-0.22336 -0.20969,-0.34644 -0.20968,-0.12308 -0.59259,-0.12536 z" />
      </g>
      <g
         id="text4625"
         style="color:#000000;font-style:normal;font-variant:normal;font-weight:bold;font-stretch:normal;font-size:4.667799px;line-height:125%;font-family:'Copperplate Gothic Bold';-inkscape-font-specification:'Copperplate Gothic Bold,  Bold';font-variant-ligatures:normal;font-variant-position:normal;font-variant-caps:normal;font-variant-numeric:normal;font-variant-alternates:normal;font-feature-settings:normal;text-indent:0;text-align:center;text-decoration:none;text-decoration-line:none;text-decoration-style:solid;text-decoration-color:#000000;letter-spacing:normal;word-spacing:normal;text-transform:none;writing-mode:lr-tb;direction:ltr;text-orientation:mixed;dominant-baseline:auto;baseline-shift:baseline;text-anchor:middle;white-space:normal;shape-padding:0;clip-rule:nonzero;display:inline;overflow:visible;visibility:visible;opacity:1;isolation:auto;mix-blend-mode:normal;color-interpolation:sRGB;color-interpolation-filters:linearRGB;solid-color:#000000;solid-opacity:1;vector-effect:none;fill:none;fill-opacity:1;fill-rule:nonzero;stroke:#000000;stroke-width:0.08;stroke-linecap:butt;stroke-linejoin:bevel;stroke-miterlimit:4;stroke-dasharray:none;stroke-dashoffset:0;stroke-opacity:1;marker:none;paint-order:normal;color-rendering:auto;image-rendering:auto;shape-rendering:auto;text-rendering:auto;enable-background:accumulate"
         transform="scale(1.0055453,0.99448528)"
         aria-label="GSURREL">
        <path
           id="path4681"
           style="stroke-width:0.08"
           d="m 137.77072,286.52142 h -0.76809 q -0.0707,0 -0.10712,0.0319 -0.0342,0.0319 -0.057,0.11396 h -0.0729 v -0.72479 h 0.0729 q 0.0228,0.0843 0.057,0.11624 0.0365,0.0296 0.10712,0.0296 h 1.47692 v 0.0729 q -0.082,0.0228 -0.11624,0.0593 -0.0319,0.0365 -0.0319,0.10712 v 0.63818 q 0,0.0707 0.0319,0.10712 0.0319,0.0365 0.11624,0.0593 v 0.057 q -0.88661,0.50598 -1.71852,0.50598 -0.75441,0 -1.23076,-0.35783 -0.59943,-0.45128 -0.59943,-1.25356 0,-0.74758 0.53333,-1.18974 0.50598,-0.41937 1.34473,-0.41937 0.26666,0 0.50142,0.0501 0.23704,0.0479 0.53789,0.1641 0.15499,0.0615 0.22108,0.0615 0.0479,0 0.11168,-0.0524 l 0.0638,0.0342 -0.36467,0.74529 -0.0661,-0.0342 q -0.002,-0.0752 -0.0205,-0.10713 -0.0182,-0.0342 -0.0821,-0.082 -0.13903,-0.10484 -0.40798,-0.17778 -0.26894,-0.0752 -0.50826,-0.0752 -0.48775,0 -0.80911,0.2735 -0.3624,0.30998 -0.3624,0.81824 0,0.4923 0.35328,0.79544 0.32365,0.27806 0.85242,0.27806 0.25755,0 0.50826,-0.0593 0.25071,-0.0593 0.43305,-0.16182 z" />
        <path
           id="path4683"
           style="stroke-width:0.08"
           d="m 141.90063,284.7915 -0.37151,0.73163 -0.0638,-0.0365 q 0.002,-0.0228 0.002,-0.0365 0,-0.0775 -0.13219,-0.16638 -0.4057,-0.28262 -0.95271,-0.28262 -0.24159,0 -0.42621,0.0593 -0.13447,0.0456 -0.2188,0.13675 -0.0821,0.0912 -0.0821,0.19829 0,0.1755 0.21196,0.23932 0.1094,0.0319 0.46952,0.0684 l 0.35783,0.0365 q 0.31909,0.0342 0.5151,0.0935 0.19829,0.0593 0.351,0.16638 0.15498,0.11168 0.24387,0.29402 0.0912,0.18233 0.0912,0.38974 0,0.3282 -0.21197,0.58347 -0.19145,0.23248 -0.59487,0.34416 -0.30085,0.0843 -0.64501,0.0843 -0.61766,0 -1.21937,-0.29629 -0.12764,-0.0593 -0.15271,-0.0593 -0.0296,0 -0.0934,0.0501 l -0.0661,-0.0342 0.33732,-0.76353 0.0661,0.0319 q 0,0.0205 0,0.0296 0,0.10256 0.098,0.18917 0.14815,0.1322 0.45812,0.22792 0.30997,0.0957 0.58803,0.0957 0.30314,0 0.51738,-0.10256 0.11852,-0.057 0.18918,-0.15043 0.0707,-0.0957 0.0707,-0.19829 0,-0.15499 -0.16638,-0.22108 -0.11624,-0.0456 -0.46952,-0.0843 l -0.35099,-0.0365 q -0.35328,-0.0365 -0.49915,-0.0684 -0.14587,-0.0342 -0.29173,-0.10712 -0.20741,-0.10256 -0.32593,-0.30769 -0.10712,-0.18462 -0.10712,-0.42393 0,-0.3943 0.27122,-0.65185 0.35556,-0.3396 1.06667,-0.3396 0.29857,0 0.55612,0.0615 0.25755,0.0593 0.64274,0.22109 0.13219,0.0524 0.16182,0.0524 0.0479,0 0.11168,-0.0524 z" />
        <path
           id="path4685"
           style="stroke-width:0.08"
           d="m 145.53595,284.76871 v 1.74359 q 0,0.49459 -0.18234,0.74074 -0.3282,0.44216 -1.35612,0.44216 -0.74302,0 -1.13732,-0.23931 -0.2302,-0.13903 -0.31909,-0.37835 -0.0866,-0.23704 -0.0866,-0.56524 v -1.74359 q 0,-0.0707 -0.0319,-0.10712 -0.0319,-0.0365 -0.11396,-0.0593 v -0.0729 h 0.97322 v 0.0729 q -0.0821,0.0205 -0.11624,0.0593 -0.0319,0.0365 -0.0319,0.10712 v 1.55214 q 0,0.26894 0.0296,0.39886 0.0296,0.12763 0.11168,0.21424 0.21881,0.23248 0.74758,0.23248 0.53105,0 0.74986,-0.23248 0.0798,-0.0866 0.1094,-0.21424 0.0296,-0.12992 0.0296,-0.39886 v -1.55214 q 0,-0.0707 -0.0319,-0.10712 -0.0319,-0.0365 -0.11396,-0.0593 v -0.0729 h 0.91624 v 0.0729 q -0.082,0.0228 -0.11396,0.0593 -0.0319,0.0365 -0.0319,0.10712 z" />
        <path
           id="path4687"
           style="stroke-width:0.08"
           d="m 147.00603,286.37099 v 1.03248 q 0,0.0684 0.0319,0.10712 0.0342,0.0365 0.11396,0.057 v 0.0729 h -0.97094 v -0.0729 q 0.0821,-0.0228 0.11396,-0.0593 0.0319,-0.0365 0.0319,-0.10484 v -2.63476 q 0,-0.0707 -0.0319,-0.10712 -0.0319,-0.0365 -0.11396,-0.0593 v -0.0729 h 1.94644 q 0.35555,0 0.56296,0.041 0.20969,0.041 0.36467,0.14359 0.18006,0.11852 0.26895,0.32137 0.0843,0.19601 0.0843,0.41937 0,0.76125 -0.84558,0.89117 l 0.60398,0.85926 q 0.15955,0.22564 0.23248,0.29173 0.0752,0.0638 0.18234,0.0707 v 0.0729 h -1.12593 v -0.0729 q 0.11624,-0.0182 0.11624,-0.082 0,-0.041 -0.10712,-0.19829 l -0.62906,-0.91624 z m 0,-0.51282 h 1.04843 q 0.23248,0 0.32821,-0.0137 0.0957,-0.0137 0.1755,-0.057 0.17322,-0.0934 0.17322,-0.33732 0,-0.24387 -0.17322,-0.33732 -0.082,-0.0456 -0.1755,-0.057 -0.0912,-0.0137 -0.32821,-0.0137 h -1.04843 z" />
        <path
           id="path4689"
           style="stroke-width:0.08"
           d="m 150.78039,286.37099 v 1.03248 q 0,0.0684 0.0319,0.10712 0.0342,0.0365 0.11396,0.057 v 0.0729 h -0.97093 v -0.0729 q 0.0821,-0.0228 0.11396,-0.0593 0.0319,-0.0365 0.0319,-0.10484 v -2.63476 q 0,-0.0707 -0.0319,-0.10712 -0.0319,-0.0365 -0.11396,-0.0593 v -0.0729 h 1.94643 q 0.35556,0 0.56296,0.041 0.20969,0.041 0.36468,0.14359 0.18005,0.11852 0.26894,0.32137 0.0843,0.19601 0.0843,0.41937 0,0.76125 -0.84558,0.89117 l 0.60399,0.85926 q 0.15954,0.22564 0.23247,0.29173 0.0752,0.0638 0.18234,0.0707 v 0.0729 h -1.12592 v -0.0729 q 0.11623,-0.0182 0.11623,-0.082 0,-0.041 -0.10712,-0.19829 l -0.62906,-0.91624 z m 0,-0.51282 h 1.04843 q 0.23248,0 0.3282,-0.0137 0.0957,-0.0137 0.1755,-0.057 0.17322,-0.0934 0.17322,-0.33732 0,-0.24387 -0.17322,-0.33732 -0.082,-0.0456 -0.1755,-0.057 -0.0912,-0.0137 -0.3282,-0.0137 h -1.04843 z" />
        <path
           id="path4691"
           style="stroke-width:0.08"
           d="m 154.55474,286.27526 v 0.85242 h 2.00113 q 0.0684,0 0.10485,-0.0319 0.0365,-0.0319 0.0593,-0.11396 h 0.0729 v 0.80456 h -0.0729 q -0.0228,-0.082 -0.0593,-0.11396 -0.0365,-0.0319 -0.10485,-0.0319 h -2.8262 v -0.0729 q 0.0821,-0.0228 0.11396,-0.0593 0.0319,-0.0365 0.0319,-0.10712 v -2.63248 q 0,-0.0707 -0.0319,-0.10712 -0.0319,-0.0365 -0.11396,-0.0593 v -0.0729 h 2.7715 q 0.0684,0 0.10485,-0.0319 0.0365,-0.0342 0.0593,-0.11624 h 0.0729 v 0.80456 h -0.0729 q -0.0228,-0.0798 -0.0593,-0.11168 -0.0365,-0.0319 -0.10485,-0.0319 h -1.94643 v 0.73846 h 1.26267 q 0.0684,0 0.10485,-0.0319 0.0365,-0.0319 0.0593,-0.11396 h 0.0729 v 0.78632 h -0.0729 q -0.0228,-0.0798 -0.0593,-0.11168 -0.0365,-0.0342 -0.10485,-0.0342 z" />
        <path
           id="path4693"
           style="stroke-width:0.08"
           d="m 158.10117,287.12768 h 1.91225 q 0.0707,0 0.10712,-0.0319 0.0365,-0.0319 0.0593,-0.11396 h 0.0729 v 0.80456 h -0.0729 q -0.0228,-0.082 -0.0593,-0.11396 -0.0365,-0.0319 -0.10712,-0.0319 h -2.73732 v -0.0729 q 0.082,-0.0228 0.11396,-0.0593 0.0319,-0.0365 0.0319,-0.10712 v -2.63248 q 0,-0.0707 -0.0319,-0.10712 -0.0319,-0.0365 -0.11396,-0.0593 v -0.0729 h 0.97094 v 0.0729 q -0.0821,0.0205 -0.11396,0.0593 -0.0319,0.0365 -0.0319,0.10712 z" />
      </g>
    </g>
  </g>
</svg>
