<?xml version="1.0" encoding="UTF-8" standalone="no"?>
<!-- Created with Inkscape (http://www.inkscape.org/) -->

<svg
   xmlns:dc="http://purl.org/dc/elements/1.1/"
   xmlns:cc="http://creativecommons.org/ns#"
   xmlns:rdf="http://www.w3.org/1999/02/22-rdf-syntax-ns#"
   xmlns:svg="http://www.w3.org/2000/svg"
   xmlns="http://www.w3.org/2000/svg"
   xmlns:xlink="http://www.w3.org/1999/xlink"
   xmlns:sodipodi="http://sodipodi.sourceforge.net/DTD/sodipodi-0.dtd"
   xmlns:inkscape="http://www.inkscape.org/namespaces/inkscape"
   width="93.509804mm"
   height="26.63331mm"
   viewBox="0 0 93.509804 26.63331"
   version="1.1"
   id="svg8"
   inkscape:version="0.92.2 (5c3e80d, 2017-08-06)"
   sodipodi:docname="harmonhero.svg">
  <defs
     id="defs2">
    <linearGradient
       inkscape:collect="always"
       id="linearGradient4551">
      <stop
         style="stop-color:#808080;stop-opacity:1"
         offset="0"
         id="stop4585" />
      <stop
         id="stop4592"
         offset="0.16812658"
         style="stop-color:#d6d6d6;stop-opacity:1" />
      <stop
         style="stop-color:#e3e3e3;stop-opacity:1;"
         offset="0.81837118"
         id="stop4594" />
      <stop
         style="stop-color:#ffffff;stop-opacity:1"
         offset="1"
         id="stop4587" />
    </linearGradient>
    <linearGradient
       id="linearGradient4551-0"
       inkscape:collect="always">
      <stop
         id="stop4547"
         offset="0"
         style="stop-color:#ff0000;stop-opacity:1;" />
      <stop
         id="stop4549"
         offset="1"
         style="stop-color:#ffffff;stop-opacity:1" />
    </linearGradient>
    <linearGradient
       inkscape:collect="always"
       id="linearGradient4520">
      <stop
         style="stop-color:#ff0000;stop-opacity:1;"
         offset="0"
         id="stop4516" />
      <stop
         style="stop-color:#ff0000;stop-opacity:0;"
         offset="1"
         id="stop4518" />
    </linearGradient>
    <linearGradient
       inkscape:collect="always"
       xlink:href="#linearGradient4520"
       id="linearGradient4522"
       x1="60.585934"
       y1="271.36066"
       x2="51.021351"
       y2="218.44128"
       gradientUnits="userSpaceOnUse" />
    <linearGradient
       inkscape:collect="always"
       xlink:href="#linearGradient4551-0"
       id="linearGradient4539"
       x1="124.28033"
       y1="314.37253"
       x2="111.4514"
       y2="271.34213"
       gradientUnits="userSpaceOnUse" />
    <linearGradient
       inkscape:collect="always"
       xlink:href="#linearGradient4551"
       id="linearGradient4590"
       gradientUnits="userSpaceOnUse"
       x1="191.37111"
       y1="284.32343"
       x2="110.31747"
       y2="268.31833" />
    <linearGradient
       inkscape:collect="always"
       xlink:href="#linearGradient4551"
       id="linearGradient4647"
       gradientUnits="userSpaceOnUse"
       x1="191.37111"
       y1="284.32343"
       x2="110.31747"
       y2="268.31833" />
    <linearGradient
       inkscape:collect="always"
       xlink:href="#linearGradient4551-0"
       id="linearGradient4649"
       gradientUnits="userSpaceOnUse"
       x1="124.28033"
       y1="314.37253"
       x2="111.4514"
       y2="271.34213"
       gradientTransform="translate(-3.3e-6,5e-6)" />
  </defs>
  <sodipodi:namedview
     id="base"
     pagecolor="#ffffff"
     bordercolor="#666666"
     borderopacity="1.0"
     inkscape:pageopacity="0.0"
     inkscape:pageshadow="2"
     inkscape:zoom="1.4"
     inkscape:cx="223.0705"
     inkscape:cy="-9.7272717"
     inkscape:document-units="mm"
     inkscape:current-layer="g4641"
     showgrid="false"
     fit-margin-top="0"
     fit-margin-left="0"
     fit-margin-right="0"
     fit-margin-bottom="0"
     inkscape:window-width="1224"
     inkscape:window-height="777"
     inkscape:window-x="1277"
     inkscape:window-y="401"
     inkscape:window-maximized="0" />
  <metadata
     id="metadata5">
    <rdf:RDF>
      <cc:Work
         rdf:about="">
        <dc:format>image/svg+xml</dc:format>
        <dc:type
           rdf:resource="http://purl.org/dc/dcmitype/StillImage" />
        <dc:title></dc:title>
      </cc:Work>
    </rdf:RDF>
  </metadata>
  <g
     inkscape:label="Calque 1"
     inkscape:groupmode="layer"
     id="layer1"
     transform="translate(-101.57969,-270.06602)">
    <g
       id="g4641">
      <path
         style="color:#000000;clip-rule:nonzero;display:inline;overflow:visible;visibility:visible;opacity:1;isolation:auto;mix-blend-mode:normal;color-interpolation:sRGB;color-interpolation-filters:linearRGB;solid-color:#000000;solid-opacity:1;vector-effect:none;fill:url(#linearGradient4647);fill-opacity:1;fill-rule:nonzero;stroke:#000000;stroke-width:0.5;stroke-linecap:butt;stroke-linejoin:bevel;stroke-miterlimit:4;stroke-dasharray:none;stroke-dashoffset:0;stroke-opacity:1;marker:none;paint-order:normal;color-rendering:auto;image-rendering:auto;shape-rendering:auto;text-rendering:auto;enable-background:accumulate"
         d="m 107.12136,274.54935 h 6.30882 l 7.39461,-4.23333 h 55.0196 l 7.39461,4.23333 h 6.30882 l 5.29167,12.58317 h -93.0098 z"
         id="path4565"
         inkscape:connector-curvature="0"
         sodipodi:nodetypes="ccccccccc" />
      <path
         sodipodi:nodetypes="ccccc"
         inkscape:connector-curvature="0"
         id="rect4530"
         d="m 194.83949,287.13252 v 9.31681 h -93.0098 v -9.31681 z"
         style="color:#000000;clip-rule:nonzero;display:inline;overflow:visible;visibility:visible;opacity:1;isolation:auto;mix-blend-mode:normal;color-interpolation:sRGB;color-interpolation-filters:linearRGB;solid-color:#000000;solid-opacity:1;vector-effect:none;fill:url(#linearGradient4649);fill-opacity:1;fill-rule:nonzero;stroke:#000000;stroke-width:0.5;stroke-linecap:butt;stroke-linejoin:bevel;stroke-miterlimit:4;stroke-dasharray:none;stroke-dashoffset:0;stroke-opacity:1;marker:none;paint-order:normal;color-rendering:auto;image-rendering:auto;shape-rendering:auto;text-rendering:auto;enable-background:accumulate" />
      <path
         sodipodi:nodetypes="cc"
         inkscape:connector-curvature="0"
         id="path4555"
         d="m 111.929,284.8974 6.24994,-10.34802"
         style="color:#000000;clip-rule:nonzero;display:inline;overflow:visible;visibility:visible;opacity:1;isolation:auto;mix-blend-mode:normal;color-interpolation:sRGB;color-interpolation-filters:linearRGB;solid-color:#000000;solid-opacity:1;vector-effect:none;fill:#ffffff;fill-opacity:0.5254902;fill-rule:nonzero;stroke:#000000;stroke-width:0.5;stroke-linecap:butt;stroke-linejoin:bevel;stroke-miterlimit:4;stroke-dasharray:none;stroke-dashoffset:0;stroke-opacity:1;marker:none;paint-order:normal;color-rendering:auto;image-rendering:auto;shape-rendering:auto;text-rendering:auto;enable-background:accumulate" />
      <path
         style="color:#000000;clip-rule:nonzero;display:inline;overflow:visible;visibility:visible;opacity:1;isolation:auto;mix-blend-mode:normal;color-interpolation:sRGB;color-interpolation-filters:linearRGB;solid-color:#000000;solid-opacity:1;vector-effect:none;fill:#ffffff;fill-opacity:0.5254902;fill-rule:nonzero;stroke:#000000;stroke-width:0.5;stroke-linecap:butt;stroke-linejoin:bevel;stroke-miterlimit:4;stroke-dasharray:none;stroke-dashoffset:0;stroke-opacity:1;marker:none;paint-order:normal;color-rendering:auto;image-rendering:auto;shape-rendering:auto;text-rendering:auto;enable-background:accumulate"
         d="m 184.74018,284.8974 -6.24994,-10.34802"
         id="path4557"
         inkscape:connector-curvature="0"
         sodipodi:nodetypes="cc" />
      <text
         id="text4563"
         y="294.95163"
         x="148.22052"
         style="color:#000000;font-style:normal;font-variant:normal;font-weight:bold;font-stretch:normal;font-size:9.53597641px;line-height:125%;font-family:Arial;-inkscape-font-specification:'Arial Bold';font-variant-ligatures:normal;font-variant-position:normal;font-variant-caps:normal;font-variant-numeric:normal;font-variant-alternates:normal;font-feature-settings:normal;text-indent:0;text-align:start;text-decoration:none;text-decoration-line:none;text-decoration-style:solid;text-decoration-color:#000000;letter-spacing:normal;word-spacing:normal;text-transform:none;writing-mode:lr-tb;direction:ltr;text-orientation:mixed;dominant-baseline:auto;baseline-shift:baseline;text-anchor:start;white-space:normal;shape-padding:0;clip-rule:nonzero;display:inline;overflow:visible;visibility:visible;opacity:1;isolation:auto;mix-blend-mode:normal;color-interpolation:sRGB;color-interpolation-filters:linearRGB;solid-color:#000000;solid-opacity:1;vector-effect:none;fill:#000000;fill-opacity:0.5254902;fill-rule:nonzero;stroke:#000000;stroke-width:0.75086433;stroke-linecap:butt;stroke-linejoin:bevel;stroke-miterlimit:4;stroke-dasharray:none;stroke-dashoffset:0;stroke-opacity:1;marker:none;paint-order:normal;color-rendering:auto;image-rendering:auto;shape-rendering:auto;text-rendering:auto;enable-background:accumulate"
         xml:space="preserve"><tspan
           style="font-style:normal;font-variant:normal;font-weight:bold;font-stretch:normal;font-family:'Copperplate Gothic Bold';-inkscape-font-specification:'Copperplate Gothic Bold, Bold';text-align:center;letter-spacing:1.32291663px;text-anchor:middle;fill:#000000;fill-opacity:1;stroke:none;stroke-width:0.75086433"
           y="294.95163"
           x="148.88197"
           id="tspan4561"
           sodipodi:role="line">HarmonHero</tspan></text>
      <g
         transform="translate(0.959355,0.03415626)"
         id="g4615">
        <path
           sodipodi:nodetypes="csssssssssssssssssssssssssssssssssssssssssssssssssssssscccccsssssssssssscsc"
           style="color:#000000;clip-rule:nonzero;display:inline;overflow:visible;visibility:visible;opacity:1;isolation:auto;mix-blend-mode:normal;color-interpolation:sRGB;color-interpolation-filters:linearRGB;solid-color:#000000;solid-opacity:1;vector-effect:none;fill:none;fill-opacity:1;fill-rule:nonzero;stroke:#000000;stroke-width:0.08;stroke-linecap:butt;stroke-linejoin:bevel;stroke-miterlimit:4;stroke-dasharray:none;stroke-dashoffset:0;stroke-opacity:1;marker:none;paint-order:normal;color-rendering:auto;image-rendering:auto;shape-rendering:auto;text-rendering:auto;enable-background:accumulate"
           d="m 124.39872,280.01313 c 1.41155,0.22493 2.98731,-0.47313 3.03192,-1.96791 0.0326,-1.09169 0.6248,-2.64181 -0.51074,-3.27739 -1.193,-0.66774 -2.21534,1.028 -2.23287,2.14455 -0.0188,1.19726 0.91695,2.45343 0.18808,3.57674 -0.59482,0.91672 -0.38586,2.25616 -3.37266,0.14823 -0.79491,-0.56099 -1.77154,1.22604 -1.98781,0.21301 -0.33381,-1.56368 1.83162,-2.53706 2.32617,-1.79455 2.45143,3.68055 2.23882,2.57805 3.38551,3.32402 1.10227,0.71707 2.06143,-2.54279 0.77396,-1.90124 -1.09308,0.54468 0.15997,1.7551 1.49448,1.81684 7.41912,0.34323 8.6913,-10.24538 3.63554,-6.88683 -0.92551,0.61482 0.756,1.77938 1.43776,2.21866 0.90327,0.58201 1.84543,1.43158 1.72279,2.6281 -0.14701,1.43424 -2.1879,1.56465 -3.24907,1.9151 -1.43632,0.47434 0.44218,3.99067 1.74006,3.28893 1.23032,-0.66521 0.96305,-3.67204 0.79849,-4.85379 -0.19502,-1.40052 -2.20213,-2.51287 -3.55454,-2.01831 -1.03232,0.37751 -3.12669,0.0244 -3.14021,1.36827 -0.0148,1.46723 1.51694,0.55224 2.12889,-0.11783 0.58894,-0.64488 3.03859,-0.72886 3.13461,-0.27232 0.23397,1.11241 -1.85529,2.20447 -1.3234,3.23496 0.65524,1.26948 1.02709,0.52555 1.5724,-0.42049 0.66078,-1.14638 2.70094,-2.45799 2.7123,-3.75395 0.01,-1.09956 -1.5446,-3.51456 -0.36761,-2.99689 1.89995,0.83567 3.18518,1.13079 4.78077,0.51553 1.33683,-0.51548 -1.58959,2.18456 -2.71065,2.83579 -1.20775,0.70158 1.22972,3.08068 2.54175,2.37478 1.00504,-0.54074 0.73934,-2.0525 0.15686,-2.88391 -0.63813,-0.91086 -3.11258,-1.62071 -4.01559,-0.72381 -1.1729,1.16497 0.62455,2.54975 0.33613,3.77852 -0.28066,1.19568 -0.46944,0.2272 -1.34373,-0.0176 -1.03237,-0.28906 -1.80619,-1.53827 -1.14688,-2.56616 1.00092,-1.56048 1.71127,-1.41955 2.54723,-3.14709 0.42101,-0.87002 0.0168,-1.90881 -0.87416,-2.25223 -1.38317,-0.53318 -2.99936,0.51573 -3.15314,1.98048 -0.61865,5.89276 -6.75492,5.12642 1.42886,6.59449 1.81035,0.32476 4.65711,-0.10691 6.46894,-0.0962 0.75481,0.004 1.7987,-0.92221 2.81817,-0.89074 1.03617,0.032 2.04789,1.02097 2.80283,0.88274 0.71391,-0.13072 3.13455,0.28269 3.2494,-0.58803 0.0276,-0.2096 -1.95414,0.40192 -2.00827,-1.2865 -0.045,-1.4032 2.93627,-3.96925 -0.13988,-3.99092 -3.73114,-0.0263 3.9018,7.97291 -2.08534,3.84188 -2.62285,-1.80973 1.01728,-2.44122 1.23386,-1.78229 0.11294,0.34362 -0.0273,0.55403 -0.31216,0.48649 -1.70487,-0.40417 -2.18533,2.08645 -0.90556,2.42894 4.00414,1.07159 2.25827,-1.45793 -0.29684,-2.68694 -1.36406,-0.65612 -3.49557,-1.29705 -4.3393,-0.81953 -1.47774,0.83635 1.4373,2.38518 2.47259,2.90618 0.90592,0.45589 1.94157,0.0219 1.12491,-0.98437 -0.71559,-0.88171 -1.19862,-2.63954 -0.1303,-3.33519 1.00898,-0.65702 0.50871,1.13968 0.18761,1.70982 -0.49149,0.87269 -1.63201,2.94953 -2.31539,1.67624 -6.01566,-11.20859 0.99946,-8.19472 -2.52741,-3.98136 -0.33128,0.39577 -2.0152,0.0532 -2.2983,-3.50261 -1.64758,2.82188 -2.39459,2.5581 -1.8403,-0.2274 -0.66546,1.63397 -1.13699,1.25492 -1.61498,2.51065 -0.75282,-5.77068 -2.60956,-2.25489 -1.20653,0.29165 -3.08801,-3.11257 -2.93414,-1.85693 -1.80633,1.6869 -1.2987,-2.45067 -1.97331,-3.09283 -1.68959,-0.10122 0.14452,1.52386 2.41231,2.61935 3.82806,2.68555 1.35653,0.0634 1.63374,0.60398 2.81482,1.25897 1.1039,0.61219 -1.07214,2.13367 -2.05541,2.58616 -0.96815,0.44553 -0.90358,0.83123 -1.87923,1.25874 -0.44297,0.1941 -0.86635,0.37236 -1.28554,0.50973 -0.49137,0.16104 -1.20692,-1.27933 -1.67687,-1.1941 -0.59024,0.10703 -0.92946,1.72027 -1.49543,1.73857 -0.82124,0.0266 -1.33904,-1.48685 -2.13656,-1.55845 -0.63316,-0.0568 -0.48981,1.34375 -1.12563,1.27722 -1.41986,-0.14858 0.006,-1.44037 -0.77736,-2.17181 -0.81781,-0.76392 -0.87903,1.92781 -2.19501,0.89262 -2.51835,-1.98102 -4.49532,-6.92498 3.26296,-10.47707 -2.51553,4.03148 0.98787,4.91991 0.98787,6.94072 z"
           id="path4596"
           inkscape:connector-curvature="0" />
        <use
           height="100%"
           width="100%"
           transform="matrix(-1,0,0,1,294.75047,0)"
           id="use4621"
           xlink:href="#path4596"
           y="0"
           x="0" />
      </g>
      <text
         transform="scale(1.0055453,0.99448528)"
         id="text4619"
         y="276.46637"
         x="147.50974"
         style="color:#000000;font-style:normal;font-variant:normal;font-weight:bold;font-stretch:normal;font-size:4.667799px;line-height:125%;font-family:'Copperplate Gothic Bold';-inkscape-font-specification:'Copperplate Gothic Bold,  Bold';font-variant-ligatures:normal;font-variant-position:normal;font-variant-caps:normal;font-variant-numeric:normal;font-variant-alternates:normal;font-feature-settings:normal;text-indent:0;text-align:center;text-decoration:none;text-decoration-line:none;text-decoration-style:solid;text-decoration-color:#000000;letter-spacing:normal;word-spacing:normal;text-transform:none;writing-mode:lr-tb;direction:ltr;text-orientation:mixed;dominant-baseline:auto;baseline-shift:baseline;text-anchor:middle;white-space:normal;shape-padding:0;clip-rule:nonzero;display:inline;overflow:visible;visibility:visible;opacity:1;isolation:auto;mix-blend-mode:normal;color-interpolation:sRGB;color-interpolation-filters:linearRGB;solid-color:#000000;solid-opacity:1;vector-effect:none;fill:none;fill-opacity:1;fill-rule:nonzero;stroke:#000000;stroke-width:0.08;stroke-linecap:butt;stroke-linejoin:bevel;stroke-miterlimit:4;stroke-dasharray:none;stroke-dashoffset:0;stroke-opacity:1;marker:none;paint-order:normal;color-rendering:auto;image-rendering:auto;shape-rendering:auto;text-rendering:auto;enable-background:accumulate"
         xml:space="preserve"><tspan
           style="stroke-width:0.08"
           y="276.46637"
           x="147.50974"
           id="tspan4617"
           sodipodi:role="line">2018</tspan></text>
      <text
         xml:space="preserve"
         style="color:#000000;font-style:normal;font-variant:normal;font-weight:bold;font-stretch:normal;font-size:4.667799px;line-height:125%;font-family:'Copperplate Gothic Bold';-inkscape-font-specification:'Copperplate Gothic Bold,  Bold';font-variant-ligatures:normal;font-variant-position:normal;font-variant-caps:normal;font-variant-numeric:normal;font-variant-alternates:normal;font-feature-settings:normal;text-indent:0;text-align:center;text-decoration:none;text-decoration-line:none;text-decoration-style:solid;text-decoration-color:#000000;letter-spacing:normal;word-spacing:normal;text-transform:none;writing-mode:lr-tb;direction:ltr;text-orientation:mixed;dominant-baseline:auto;baseline-shift:baseline;text-anchor:middle;white-space:normal;shape-padding:0;clip-rule:nonzero;display:inline;overflow:visible;visibility:visible;opacity:1;isolation:auto;mix-blend-mode:normal;color-interpolation:sRGB;color-interpolation-filters:linearRGB;solid-color:#000000;solid-opacity:1;vector-effect:none;fill:none;fill-opacity:1;fill-rule:nonzero;stroke:#000000;stroke-width:0.08;stroke-linecap:butt;stroke-linejoin:bevel;stroke-miterlimit:4;stroke-dasharray:none;stroke-dashoffset:0;stroke-opacity:1;marker:none;paint-order:normal;color-rendering:auto;image-rendering:auto;shape-rendering:auto;text-rendering:auto;enable-background:accumulate"
         x="147.50974"
         y="287.6405"
         id="text4625"
         transform="scale(1.0055453,0.99448528)"><tspan
           sodipodi:role="line"
           id="tspan4623"
           x="147.50974"
           y="287.6405"
           style="stroke-width:0.08">GSURREL</tspan></text>
    </g>
  </g>
</svg>
